<svg xmlns="http://www.w3.org/2000/svg" width="600" height="571.682" viewBox="0 0 600 571.682"><path d="M152.127 401.679c-4.594-3.556-11.208-2.713-14.762 1.888-32.381 41.872-83.7 58.268-101.166 48.467-6.779-3.8-10.943-11.231-11.428-20.386-.14-2.651.018-5.32.46-7.983 19.1 2.871 62.842 5.164 74.805-31.224 2.4-7.302 1.458-15.28-2.582-21.889-3.978-6.509-10.526-10.913-17.962-12.082-12.693-2.014-27.123 2.666-42.893 13.856-21.755 15.438-34.034 38.032-32.845 60.438.875 16.507 8.948 30.222 22.147 37.626 6.567 3.685 14.54 5.409 23.362 5.409 32.78 0 77.266-23.815 104.75-59.36 3.556-4.595 2.712-11.205-1.886-14.76zM48.78 389.49c13.869-9.842 22.585-10.976 27.443-10.233 1.816.288 2.83 1.548 3.274 2.27.814 1.333 1.014 2.915.546 4.342-6.103 18.56-30.529 19.238-45.882 17.7 3.834-5.142 8.755-9.919 14.619-14.08zm83.913 68.618c-7.178 0-12.996 5.819-12.996 12.997 0 7.177 5.818 12.996 12.996 12.996 7.178 0 12.996-5.819 12.996-12.996 0-7.178-5.818-12.997-12.996-12.997zm44.033-58.29c-7.178 0-12.997 5.82-12.997 12.997s5.819 12.997 12.997 12.997c7.177 0 12.996-5.82 12.996-12.997s-5.819-12.996-12.996-12.996zm51.21-52.614c-8.383 0-15.178 6.795-15.178 15.178 0 8.382 6.795 15.177 15.177 15.177 8.383 0 15.178-6.795 15.178-15.177 0-8.383-6.795-15.178-15.178-15.178zm61.683-40.638c-8.382 0-15.177 6.796-15.177 15.178s6.795 15.178 15.177 15.178c8.383 0 15.178-6.796 15.178-15.178s-6.795-15.178-15.178-15.178zm69.638-32.8c-9.685 0-17.537 7.85-17.537 17.535s7.852 17.537 17.537 17.537c9.685 0 17.536-7.852 17.536-17.537 0-9.685-7.851-17.536-17.536-17.536zm89.753 0c0-9.686-7.852-17.537-17.537-17.537s-17.536 7.851-17.536 17.536c0 9.685 7.851 17.536 17.536 17.536s17.537-7.85 17.537-17.536zm76.733-7.663c0-10.872-8.814-19.686-19.686-19.686-10.873 0-19.687 8.814-19.687 19.686 0 10.873 8.814 19.687 19.687 19.687 10.872 0 19.686-8.814 19.686-19.687zM600 271.616c0-11.71-9.493-21.203-21.203-21.203-11.71 0-21.203 9.493-21.203 21.203s9.493 21.203 21.203 21.203c11.71 0 21.203-9.493 21.203-21.203zm-267.512 84.496c-5.927 0-10.732 4.805-10.732 10.732s4.805 10.732 10.732 10.732 10.732-4.805 10.732-10.732-4.805-10.732-10.732-10.732zm60.23-25.42c-6.683 0-12.1 5.417-12.1 12.1s5.417 12.098 12.1 12.098c6.682 0 12.098-5.417 12.098-12.099s-5.416-12.099-12.099-12.099zm59.744-16.513c-7.446 0-13.483 6.036-13.483 13.482s6.037 13.483 13.483 13.483c7.446 0 13.482-6.036 13.482-13.483s-6.036-13.482-13.482-13.482zm76.621 8.142c0-7.446-6.036-13.482-13.482-13.482s-13.483 6.036-13.483 13.482c0 7.447 6.037 13.483 13.483 13.483 7.446 0 13.482-6.036 13.482-13.483zm51.984-8.7c-8.61 0-15.59 6.98-15.59 15.59 0 8.611 6.98 15.592 15.59 15.592 8.611 0 15.591-6.98 15.591-15.591 0-8.61-6.98-15.591-15.59-15.591zm-59.84 43.746a9.477 9.477 0 1 0 9.476 9.477 9.477 9.477 0 0 0-9.477-9.477zm53.726 4.159c-6.043 0-10.943 4.9-10.943 10.943 0 6.044 4.9 10.944 10.943 10.944 6.045 0 10.944-4.9 10.944-10.944 0-6.043-4.9-10.943-10.944-10.943z" fill="#95be0b"/><path d="M73.692 162.3H49.34c-11.185 0-20.235-9.05-20.235-20.204v-95.55H6.614v100.751c0 20.295 16.447 36.711 36.711 36.711h36.35c19.694 0 35.72-15.454 36.651-34.907H92.634c-2.826 7.697-10.253 13.2-18.942 13.2zm63.86-36.56v58.268h22.49V125.74h6.916c20.294 0 36.74-16.447 36.74-36.741V46.545H181.18v37.252c0 11.155-9.05 20.205-20.205 20.205h-24.353c-11.185 0-20.235-9.05-20.235-20.205V46.545h-22.49V89c0 15.243 9.261 28.292 22.49 33.854a36.349 36.349 0 0 0 14.252 2.887h6.915zm157.999 58.538c21.055 0 38.124-17.068 38.124-38.123h-27.57v3.427c0 6.945-5.623 12.598-12.599 12.598h-37.793c-6.958 0-12.598-5.64-12.598-12.598v-68.31c0-6.958 5.64-12.598 12.598-12.598h37.793c6.976 0 12.598 5.652 12.598 12.598v3.427h27.57c0-21.072-17.081-38.154-38.153-38.154h-36.982c-20.507 0-37.131 16.625-37.131 37.132v63.47c0 20.507 16.624 37.131 37.131 37.131h37.012zm161.666-22.098h-87.252v-34.967h50.39v-23.211h-50.39V69.035h87.252v-22.49H349.039v137.733h108.178V162.18zm125.696 0H495.66v-34.967h50.39v-23.211h-50.39V69.035h87.252v-22.49H474.735v137.733h108.178V162.18zM428.045 17.183L418.125 0 378.21 23.044l9.92 17.183 39.914-23.044zM71.918 488.939c-8.238 0-15.724 3.398-21.106 8.87-5.412-5.472-12.899-8.87-21.107-8.87C13.38 488.94 0 502.32 0 518.615v53.067h17.95V521.23c0-7.09 6.173-12.823 13.404-12.083 6.299.645 10.889 6.334 10.889 12.666v49.868h17.529V521.78c0-6.35 4.635-12.033 10.956-12.639 7.239-.694 13.337 5.024 13.337 12.09v50.45h17.529v-53.066c0-16.296-13.35-29.676-29.676-29.676zm60.775.013a9.48 9.48 0 0 0-9.48 9.48v63.758a9.48 9.48 0 0 0 18.962 0v-63.758a9.48 9.48 0 0 0-9.482-9.48zm56.657 17.797c5.18-1.008 10.112.774 13.447 4.109a13.848 13.848 0 0 1 2.916 4.119c.39.751.692 1.563.932 2.405 2.028 3.61 6.517 5.632 11.254 3.782 3.3-1.289 5.258-4.588 5.253-8.13-.001-.475-.032-.95-.12-1.395 0-.03 0-.03-.031-.06a28.326 28.326 0 0 0-1.172-3.157 32.346 32.346 0 0 0-6.826-10.012c-6.35-6.351-15.34-10.1-25.144-9.383-17.03 1.245-29.847 16.166-29.847 33.242v16.158c0 16.395 11.817 30.92 28.08 32.99 14.424 1.835 27.372-6.065 33.165-17.985 0 0 .03-.03.03-.06a30.764 30.764 0 0 0 1.804-4.631l.045-.248c.302-5.114-3.777-9.343-8.824-9.343a8.806 8.806 0 0 0-8.088 5.292c-.09.21-.18.45-.24.691-2.491 5.693-8.427 9.576-15.15 8.955-7.804-.722-13.533-7.738-13.533-15.576V522.05c0-7.27 4.913-13.912 12.049-15.3zm194.295 4.89c0-.03 0-.03-.03-.06a28.36 28.36 0 0 0-1.173-3.157 32.346 32.346 0 0 0-6.825-10.012c-6.351-6.351-15.34-10.1-25.144-9.383-17.03 1.245-29.847 16.166-29.847 33.242v16.159c0 16.394 11.816 30.92 28.08 32.99 14.424 1.834 27.371-6.067 33.165-17.986 0 0 .03-.03.03-.06a30.763 30.763 0 0 0 1.804-4.631l.045-.248c.302-5.114-3.777-9.343-8.824-9.343a8.806 8.806 0 0 0-8.088 5.292c-.09.21-.18.45-.24.691-2.491 5.693-8.427 9.576-15.15 8.955-7.804-.722-13.534-7.738-13.534-15.576v-.895c.631.18 1.293.27 1.984.27h35.569c4.564 0 8.298-3.734 8.298-8.298v-8.298l-.09-7.126c.06-.36.09-.722.09-1.113 0-.48-.03-.962-.12-1.413zm-43.747 9.652c-.691 0-1.353.09-1.984.27v-.088c0-5.865 3.331-11.365 8.716-13.688 6.339-2.733 12.735-.972 16.78 3.073a13.849 13.849 0 0 1 2.917 4.119c.39.751.691 1.563.932 2.405 0 0 .842 1.684.932 3.909h-28.293zm164.823-7.191c.053-.34.085-.68.085-1.048 0-.452-.035-.902-.114-1.33v-.083c0-.03 0-.03-.03-.06a28.329 28.329 0 0 0-1.173-3.157 32.346 32.346 0 0 0-6.825-10.012c-6.352-6.351-15.341-10.1-25.145-9.383-17.03 1.245-29.846 16.166-29.846 33.242v16.158c0 16.394 11.816 30.92 28.078 32.99 14.425 1.836 27.373-6.065 33.167-17.985 0 0 .03-.03.03-.06a30.763 30.763 0 0 0 1.803-4.631l.045-.248c.302-5.114-3.776-9.343-8.824-9.343a8.806 8.806 0 0 0-8.088 5.292c-.09.21-.18.45-.24.691-2.49 5.693-8.427 9.576-15.15 8.955-7.804-.722-13.533-7.738-13.533-15.576v-.895c.631.18 1.293.27 1.984.27h35.568c4.565 0 8.299-3.734 8.299-8.298v-8.298l-.09-7.126-.001-.065zm-43.776 7.19c-.691 0-1.353.09-1.984.271v-.087c0-5.865 3.33-11.365 8.716-13.688 6.337-2.734 12.734-.973 16.78 3.072a13.844 13.844 0 0 1 2.916 4.119c.391.751.692 1.563.932 2.405 0 0 .842 1.684.932 3.909h-28.292zm-174.234-28.893a29.111 29.111 0 0 0-13.83-3.458 29.26 29.26 0 0 0-13.139 3.097v-17.89c0-2.465-.992-4.69-2.616-6.313a8.896 8.896 0 0 0-6.971-2.593c-4.728.336-8.242 4.574-8.242 9.313v88.199a8.7 8.7 0 0 0 1.293 4.6c1.563 2.586 4.39 4.33 7.606 4.33 4.931 0 8.93-4.03 8.93-8.93v-40.199c0-7.844 6.831-14.2 14.863-13.401 6.995.695 12.106 6.999 12.106 14.029v39.571c0 4.9 4 8.93 8.93 8.93h.084c3.854-.037 6.831-3.459 6.831-7.313v-45.754c0-11.335-6.434-21.227-15.845-26.218zm126.005-27.18c-4.908 0-8.923 4.015-8.923 8.923v88.608c0 4.908 4.015 8.923 8.923 8.923 4.907 0 8.923-4.015 8.923-8.923V474.14c0-4.908-4.016-8.923-8.923-8.923zm170.04 79.677c-1.15-2.545-3.427-4.543-6.126-5.258-.431-.114-.86-.198-1.286-.254-3.925-.51-7.627 1.905-9.408 5.44a11.36 11.36 0 0 1-1.142 1.815 12.065 12.065 0 0 1-11.084 4.824c-6.245-.694-10.774-6.34-10.774-12.624v-32.369h28.021c2.225 0 4.24-.902 5.713-2.375a8.14 8.14 0 0 0 2.323-6.315c-.311-4.284-4.172-7.456-8.468-7.456h-27.59v-16.326c0-2.435-.992-4.6-2.585-6.193-1.983-2.021-4.982-3.075-8.138-2.364-4.075.918-6.805 4.8-6.805 8.977v67.59c0 11.275 6.404 21.167 15.725 26.158a29.196 29.196 0 0 0 13.95 3.518c12.298 0 22.91-7.607 27.39-18.31.452-.813.752-1.684.963-2.616 0-.03 0-.09.03-.12.262-1.66.269-3.576-.71-5.742z" fill="#19151a"/></svg>